<svg width="135" height="124" fill="none" xmlns="http://www.w3.org/2000/svg"><g clip-path="url(#a)"><path fill="#fff" d="M0 0h135v124H0z"/><path d="M147.623-19.885H-12.752v159.681h160.375v-159.68Z" fill="#fff"/><path d="M121.927 80.338c-11.646 26.909-42.668 41.984-69.57 37.918-4.378-.661-16.38-2.633-27.005-11.931C4.897 88.423.522 52.977 17.023 27.997 29.033 9.818 50.56-.488 71.014.028c4.407.11 21.293.795 36.133 12.803 2.18 1.765 6.987 5.955 11.32 12.604 10.176 15.613 11.05 37.366 3.46 54.904Z" fill="url(#b)"/><path d="M24.275 9.774c.63 3.185 1.198 6.379 1.648 9.59.466 3.208.834 6.427 1.102 9.656.254 3.228.448 6.46.503 9.697.07 3.235 0 6.47-.08 9.718-.063 3.246-.146 6.516.109 9.804.254 3.287.898 6.585 2.133 9.674.309.77.633 1.537.999 2.278.352.747.738 1.48 1.137 2.204a35.327 35.327 0 0 0 2.711 4.165c2.013 2.64 4.428 4.974 7.08 6.94a.632.632 0 0 0 .873-.123.625.625 0 0 0-.105-.872c-.631-.496-1.257-1-1.857-1.528-.302-.259-.597-.533-.894-.8-.287-.278-.584-.545-.864-.831a33.164 33.164 0 0 1-3.135-3.607c-1.92-2.54-3.469-5.378-4.654-8.326a31.47 31.47 0 0 1-1.387-4.556 35.608 35.608 0 0 1-.706-4.727c-.272-3.19-.216-6.428-.178-9.675.038-3.246.048-6.51-.073-9.77a138.17 138.17 0 0 0-.26-4.883c-.052-.814-.12-1.625-.188-2.438-.075-.81-.155-1.622-.24-2.432-.352-3.24-.802-6.465-1.353-9.676a149.008 149.008 0 0 0-1.993-9.555.168.168 0 0 0-.2-.12.169.169 0 0 0-.13.193h.002Z" fill="#fff" style="mix-blend-mode:soft-light"/><path d="M124.725 57.818c1.249-28.366-22.668-52.45-53.42-53.792-30.752-1.342-56.693 20.565-57.942 48.931-1.249 28.367 22.668 52.45 53.42 53.793 30.752 1.342 56.693-20.566 57.942-48.932Z" fill="#7BA64E"/><path d="M28 23.157c-1.2 1.913-2.125 4.067-1.951 6.315.2 2.603 1.527 5.04 1.595 7.65.116 4.426-3.324 8.13-4.398 12.428-1.199 4.803 3.323 10.275 5.125 12.955 1.802 2.68 1.028-2.175 2.12-4.069 1.093-1.893 3.449 7.968 7.129 10.132 1.974 1.162 4.29 1.934 5.71 3.725 2.072 2.61 1.498 6.327 1.187 9.635-.31 3.309.155 7.343 3.156 8.814 1.767.866 4.013.573 5.608 1.722 2.8 2.019 1.462 6.422 2.572 9.677 1.206 3.54 3.6 3.587 7.302 4.337 3.702.751-.467-7.326 1.267-10.15.912-1.483 2.304-2.665 3.023-4.25.996-2.197.716-5.133 2.65-6.59 1.45-1.091 3.467-.796 5.287-.812 1.819-.016 4.032-.8 4.239-2.596.182-1.592-1.423-2.863-2.995-3.232-1.57-.37-3.244-.193-4.787-.665-4.413-1.35-6.471-7.483-11.08-7.77-3.94-.245-7.239 4.147-11.11 3.38-2.157-.428-3.635-2.325-5.237-3.824-2.057-1.925-4.61-3.37-6.245-5.66-1.634-2.292-1.911-5.954.413-7.552 1.726-1.187 4.18-.705 5.885.511 1.705 1.217 2.867 3.022 4.12 4.695.386.517.824 1.053 1.443 1.245 1.666.517 2.88-1.807 2.482-3.496-.398-1.69-1.6-3.172-1.655-4.904-.099-3.053 3.211-4.99 6.116-5.996 2.904-1.006 6.326-2.206 7.18-5.14.303-1.036.223-2.178.683-3.155 1.525-3.239 9.574-4.856 7.651-6.734-1.922-1.878-8.03-2.287-9.22-6.068-.425-1.355-.864-3.142-2.286-3.275-2.316-.216-3.638 2.634-5.582 3.123-.922.232-1.01 1.788-.975 3.702a2.512 2.512 0 0 1-.708 1.797 2.538 2.538 0 0 1-3.582.067 2.517 2.517 0 0 1-.775-1.77c-.01-.533.09-1.063.294-1.556.374-.91 1.085-1.639 1.801-2.318 2.989-2.834 11.907-5.948 10.04-7.155-1.867-1.206-10.832-4.533-12.168-2.697-1.337 1.837.874.282 1.413 2.46.54 2.18-6.63 1.888-9.946 2.831-.547.156-1.154.308-1.667.061-.573-.275-.814-.937-1.123-1.489-1.665-2.954-7.204-1.036-7.204-1.036s-1.724.986-2.796 2.697ZM52.535 7.632c-.821 1.523 1.62 1.498 1.863 3.21 2.196.238 3.099-3.21 5.27-3.613 1.227-.227 2.416.646 3.082 1.697.666 1.052.977 2.281 1.541 3.389 1.265 2.48 3.878 4.226 6.662 4.452.606.049 1.274.01 1.73-.387 1.323-1.162-.57-3.344-.079-5.031.562-1.929 3.355-1.636 5.242-2.343.519-.195 4.524-1.259 4.588-1.808.114-.975-1.743-1.596-3.82-2.128-3.52-.901-9.715-.864-12.743-.591-4.027.363-10.738.07-13.336 3.156v-.003ZM119.708 73.474a50.338 50.338 0 0 0-.223-17.197c-.283-1.511-.945-3.314-2.473-3.53-1.768-.25-3.931 1.77-5.037.375-.489-.616-.294-1.512-.017-2.247a14.878 14.878 0 0 1 3.328-5.196c.908-.916 1.942-1.729 2.637-2.81 1.491-2.315.445-5.697-1.666-7.47-2.11-1.774-4.833 1.406-7.051.144-2.219-1.263-2.288-4.325-2.705-6.835-.308-1.86-1.686-6.896-3.204-4.443-1.519 2.453 2.027 12.218 6.019 16.9.482.564 1.013 1.196.973 1.936-.097 1.765-2.68 1.688-4.421 2.05-2.153.447-5.452-.701-3.631 3.034.96 1.97 5.547 4.666 4.314 5.982-1.233 1.317-5.021 5.137-6.799 8.224-1.778 3.088-2.64 6.934-1.299 10.233 1.34 3.3 5.372 5.578 8.663 4.188 1.54-.65 3.219-2.003 4.651-1.141 1.297.78 1.105 2.654 1.041 4.161-.064 1.507.808 3.508 2.281 3.154.485-.117.865-.483 1.193-.857 2.076-2.37 2.928-5.552 3.426-8.655Z" fill="#608B33"/><path opacity=".2" d="M66.033 92.82c24.154 0 43.734-18.417 43.734-41.136s-19.58-41.136-43.734-41.136C41.88 10.548 22.3 28.965 22.3 51.684S41.879 92.82 66.033 92.82Z" fill="#fff"/><g opacity=".68"><path d="M84.605 56.276c-.014 9.065-.636 18.147-2.233 27.083a97.948 97.948 0 0 1-1.433 6.655c-.559 2.2-1.21 4.38-2.003 6.51a39.533 39.533 0 0 1-1.322 3.147 24.423 24.423 0 0 1-1.666 2.987c-.634.95-1.353 1.859-2.24 2.606a6.427 6.427 0 0 1-1.464.941 4.409 4.409 0 0 1-1.705.401 4.297 4.297 0 0 1-1.724-.317 6.005 6.005 0 0 1-1.497-.888c-.908-.724-1.643-1.623-2.291-2.565-.649-.942-1.195-1.949-1.693-2.974a37.77 37.77 0 0 1-1.34-3.138c-.803-2.128-1.458-4.305-2.024-6.505a96.781 96.781 0 0 1-1.447-6.65c-.814-4.465-1.368-8.971-1.74-13.49-.374-4.52-.555-9.055-.575-13.59-.01-2.267.048-4.534.127-6.8.08-2.266.206-4.53.372-6.79.332-4.52.83-9.034 1.574-13.509.373-2.238.808-4.464 1.332-6.67.524-2.208 1.136-4.397 1.894-6.539.381-1.07.798-2.128 1.274-3.162a23.132 23.132 0 0 1 1.63-2.998c.624-.955 1.345-1.859 2.24-2.583.448-.36.94-.672 1.48-.884a4.178 4.178 0 0 1 1.7-.302 4.52 4.52 0 0 1 1.681.394 6.575 6.575 0 0 1 1.462.91c.894.724 1.633 1.61 2.291 2.54.649.937 1.23 1.918 1.74 2.936a38.767 38.767 0 0 1 1.4 3.108c.846 2.108 1.544 4.273 2.151 6.459a91.478 91.478 0 0 1 1.56 6.623c1.754 8.904 2.465 17.989 2.489 27.054Zm-.55 0c.006-4.52-.169-9.038-.548-13.544s-.943-8.996-1.786-13.435a92.39 92.39 0 0 0-1.495-6.611c-.583-2.183-1.26-4.341-2.082-6.445a38.724 38.724 0 0 0-1.363-3.1 24.034 24.034 0 0 0-1.694-2.922c-.64-.925-1.361-1.804-2.228-2.519a6.416 6.416 0 0 0-1.415-.899 4.26 4.26 0 0 0-1.614-.39 3.987 3.987 0 0 0-1.63.301 5.598 5.598 0 0 0-1.427.87c-.864.714-1.565 1.612-2.174 2.556-.61.945-1.124 1.954-1.587 2.983a38.717 38.717 0 0 0-1.236 3.15c-.735 2.136-1.323 4.32-1.827 6.523a98.782 98.782 0 0 0-1.267 6.658c-.701 4.466-1.158 8.969-1.449 13.48-.29 4.51-.4 9.033-.392 13.553-.009 4.52.154 9.036.487 13.548.343 4.506.867 9 1.65 13.452.392 2.225.85 4.439 1.398 6.628.549 2.19 1.186 4.36 1.97 6.476.392 1.057.821 2.1 1.307 3.118a23.044 23.044 0 0 0 1.649 2.94c.626.932 1.34 1.808 2.207 2.508.432.347.905.648 1.416.853a3.936 3.936 0 0 0 1.604.302 4.083 4.083 0 0 0 1.587-.388 6.082 6.082 0 0 0 1.387-.904c.847-.723 1.546-1.615 2.161-2.551 1.224-1.886 2.132-3.967 2.912-6.08.78-2.114 1.404-4.291 1.945-6.483a97.874 97.874 0 0 0 1.383-6.633c.779-4.451 1.295-8.947 1.638-13.453.344-4.507.513-9.021.512-13.542Z" fill="#fff" style="mix-blend-mode:soft-light"/><path d="M107.571 56.276a67.024 67.024 0 0 1-.588 8.726 63.508 63.508 0 0 1-1.76 8.569c-1.587 5.615-3.984 11.018-7.247 15.87a45.596 45.596 0 0 1-5.548 6.772 38.908 38.908 0 0 1-6.833 5.477 32.956 32.956 0 0 1-7.966 3.644 30.216 30.216 0 0 1-17.34.006c-2.809-.844-5.489-2.088-7.97-3.64a38.79 38.79 0 0 1-6.841-5.473 45.666 45.666 0 0 1-5.556-6.77c-3.269-4.852-5.67-10.259-7.263-15.875a63.12 63.12 0 0 1-1.769-8.573 65.49 65.49 0 0 1 .005-17.466 62.994 62.994 0 0 1 1.772-8.57c1.596-5.616 4-11.02 7.27-15.866a45.592 45.592 0 0 1 5.557-6.765 38.748 38.748 0 0 1 6.84-5.466A33.085 33.085 0 0 1 60.3 7.247a30.04 30.04 0 0 1 17.317.006 33.134 33.134 0 0 1 7.961 3.634c2.48 1.549 4.766 3.403 6.833 5.47a45.582 45.582 0 0 1 5.547 6.765c3.265 4.847 5.665 10.248 7.256 15.861a63.621 63.621 0 0 1 1.764 8.565c.387 2.893.585 5.809.593 8.728Zm-.632 0a66.333 66.333 0 0 0-.555-8.648 62.856 62.856 0 0 0-1.716-8.494c-1.538-5.57-3.861-10.948-7.058-15.781a45.153 45.153 0 0 0-5.447-6.758c-2.031-2.065-4.28-3.926-6.733-5.478a32.431 32.431 0 0 0-7.878-3.637 29.421 29.421 0 0 0-17.177.006c-2.778.846-5.426 2.096-7.877 3.644-2.452 1.548-4.698 3.418-6.728 5.481a45.178 45.178 0 0 0-5.437 6.758c-3.19 4.833-5.51 10.208-7.042 15.776s-2.267 11.355-2.266 17.13c.002 5.775.745 11.556 2.275 17.13 1.536 5.566 3.858 10.939 7.051 15.767a45.149 45.149 0 0 0 5.436 6.75c2.032 2.063 4.274 3.926 6.724 5.475a32.549 32.549 0 0 0 7.874 3.633 29.256 29.256 0 0 0 17.154.006c2.775-.844 5.424-2.085 7.877-3.628 2.454-1.544 4.7-3.409 6.732-5.47a45.087 45.087 0 0 0 5.447-6.75c3.198-4.83 5.524-10.204 7.066-15.772a62.838 62.838 0 0 0 1.72-8.493c.374-2.867.561-5.756.558-8.647Z" fill="#fff" style="mix-blend-mode:soft-light"/><path d="m23.823 36.356 11.616-.076 11.616-.043 23.233-.035 23.232.038 11.617.048 11.616.082c.007 0 .014.003.019.009.006.005.008.012.009.019a.025.025 0 0 1-.009.02.027.027 0 0 1-.019.008l-11.616.082-11.617.047-23.232.039-23.233-.035-11.616-.043-11.616-.076a.043.043 0 0 1-.038-.007.043.043 0 0 1 .038-.076ZM37.299 16.983l8.247-.076 8.247-.043c2.749-.018 5.498-.016 8.247-.022l8.248-.013 16.495.038 8.247.048c2.75.028 5.498.043 8.247.082a.03.03 0 0 1 .011.003.04.04 0 0 1 .009.006.09.09 0 0 1 .006.009.02.02 0 0 1 .001.01.024.024 0 0 1-.008.02.028.028 0 0 1-.019.008c-2.749.038-5.498.054-8.247.082l-8.247.047-16.495.039-8.247-.013c-2.749-.006-5.498-.004-8.247-.022l-8.247-.043-8.247-.077a.043.043 0 0 1-.023-.067.043.043 0 0 1 .023-.015h-.001ZM19.786 55.728l12.625-.076 12.626-.043 25.251-.035 25.251.038 12.625.048 12.626.082c.007 0 .014.003.019.008a.026.026 0 0 1 0 .04.027.027 0 0 1-.019.008l-12.626.082-12.625.047-25.251.039-25.251-.035-12.626-.043-12.625-.076a.043.043 0 0 1-.043-.043.043.043 0 0 1 .043-.04ZM23.823 75.1l11.616-.076 11.616-.043 23.233-.035 23.232.039 11.617.047 11.616.083c.007 0 .013.004.017.009a.027.027 0 0 1 .008.018.027.027 0 0 1-.008.019.025.025 0 0 1-.017.01l-11.616.081-11.617.048-23.232.038-23.233-.035-11.616-.043-11.616-.076a.043.043 0 0 1-.023-.068.044.044 0 0 1 .023-.015V75.1ZM104.939 94.658H38.961a.146.146 0 0 1-.103-.247.146.146 0 0 1 .103-.043h65.978a.145.145 0 0 1 0 .29Z" fill="#fff" style="mix-blend-mode:soft-light"/></g><path d="M42.067 39.516c0-1.6.639-3.134 1.775-4.266a6.073 6.073 0 0 1 4.285-1.767h51.527c1.369 0 2.685.524 3.678 1.463a5.302 5.302 0 0 1 1.653 3.582l3.804 74.381a3.897 3.897 0 0 1-1.054 2.873 3.954 3.954 0 0 1-2.806 1.245l-59.056 1.069a3.748 3.748 0 0 1-2.685-1.066 3.712 3.712 0 0 1-1.119-2.654l-.002-74.86Z" fill="#E15B3D"/><path d="M46.29 34.628a1.745 1.745 0 0 1 .597-1.328 1.763 1.763 0 0 1 1.398-.42c7.037.95 31.233 3.888 51.238 2.36a1.635 1.635 0 0 1 1.591.906c.095.194.15.406.162.622l3.988 74.712c.027.492-.144.974-.474 1.342-.329.367-.792.59-1.286.619-8.413.496-43.064 2.41-55.424 1.123a1.476 1.476 0 0 1-1.328-1.463l-.463-78.473Z" fill="url(#c)"/><path d="M47.118 36.499a1.678 1.678 0 0 1 .575-1.278 1.695 1.695 0 0 1 1.346-.404c6.772.914 30.057 3.742 49.31 2.27a1.572 1.572 0 0 1 1.53.873c.091.187.144.39.155.598l3.838 71.899c.026.474-.138.938-.456 1.291a1.803 1.803 0 0 1-1.237.596c-8.097.477-41.443 2.322-53.337 1.081a1.425 1.425 0 0 1-1.278-1.407l-.446-75.52Z" fill="#FEDFBA"/><path d="M58.45 58.346a.525.525 0 0 0-.562.622l.08.53a.788.788 0 0 0 .757.65h9.56a.654.654 0 0 0 .603-.407.644.644 0 0 0 .047-.25v-.052a.701.701 0 0 0-.666-.683l-9.82-.41ZM81.856 58.307a.524.524 0 0 0-.562.622l.08.53a.788.788 0 0 0 .757.649h9.56a.651.651 0 0 0 .651-.656V59.4a.702.702 0 0 0-.667-.684l-9.819-.409Z" fill="#fff" opacity=".6"/><path opacity=".68" d="M96.37 77.672H53.57a.194.194 0 0 0-.194.194v1.417c0 .107.087.194.194.194H96.37a.194.194 0 0 0 .194-.194v-1.417a.194.194 0 0 0-.194-.194ZM85.198 81.439H53.572a.194.194 0 0 0-.195.193v1.417c0 .107.087.194.194.194h31.627a.194.194 0 0 0 .194-.194v-1.417a.194.194 0 0 0-.194-.194ZM96.448 73.983H53.65a.194.194 0 0 0-.195.194v1.417c0 .107.087.194.195.194h42.798a.194.194 0 0 0 .195-.194v-1.417a.194.194 0 0 0-.195-.194ZM96.176 89.071H53.377a.194.194 0 0 0-.194.194v1.417c0 .107.087.194.194.194h42.799a.194.194 0 0 0 .194-.194v-1.417a.194.194 0 0 0-.194-.194ZM85.586 92.838H53.377a.194.194 0 0 0-.194.194v1.417c0 .107.087.194.194.194h32.209a.194.194 0 0 0 .194-.194v-1.417a.194.194 0 0 0-.194-.194ZM96.254 85.384H53.455a.194.194 0 0 0-.194.194v1.417c0 .107.087.194.194.194h42.799a.194.194 0 0 0 .194-.194v-1.418a.194.194 0 0 0-.194-.193ZM96.254 96.832H53.455a.194.194 0 0 0-.194.194v1.417c0 .107.087.194.194.194h42.799a.194.194 0 0 0 .194-.194v-1.417a.194.194 0 0 0-.194-.194ZM96.055 52.404H53.256a.194.194 0 0 0-.194.194v1.417c0 .107.087.194.194.194h42.799a.194.194 0 0 0 .194-.194v-1.417a.194.194 0 0 0-.194-.194ZM88.489 44.832H60.467a.194.194 0 0 0-.194.194v1.417c0 .107.087.194.194.194h28.022a.194.194 0 0 0 .194-.194v-1.417a.194.194 0 0 0-.194-.194ZM96.133 48.717H53.334a.194.194 0 0 0-.194.194v1.417c0 .107.087.194.194.194h42.799a.194.194 0 0 0 .194-.194V48.91a.194.194 0 0 0-.194-.193ZM72.847 65.744H53.646a.194.194 0 0 0-.195.194v1.417c0 .107.087.194.195.194h19.201a.194.194 0 0 0 .195-.194v-1.417a.194.194 0 0 0-.195-.194ZM72.847 69.197H53.646a.194.194 0 0 0-.195.194v1.417c0 .107.087.194.195.194h19.201a.194.194 0 0 0 .195-.194v-1.417a.194.194 0 0 0-.195-.194ZM72.77 62.291h-19.2a.194.194 0 0 0-.195.194v1.417c0 .107.087.194.194.194h19.202a.194.194 0 0 0 .194-.194v-1.417a.194.194 0 0 0-.194-.194ZM96.41 65.823H76.897a.194.194 0 0 0-.195.194v1.417c0 .107.087.194.195.194H96.41a.194.194 0 0 0 .194-.194v-1.417a.194.194 0 0 0-.194-.194ZM96.41 69.275H76.897a.194.194 0 0 0-.195.194v1.417c0 .107.087.194.195.194H96.41a.194.194 0 0 0 .194-.194V69.47a.194.194 0 0 0-.194-.194ZM96.334 62.37H76.818a.194.194 0 0 0-.194.194v1.417c0 .107.087.194.195.194h19.515a.194.194 0 0 0 .194-.194v-1.417a.194.194 0 0 0-.194-.194Z" fill="#fff"/><path d="M77.086 23.341c-1.862-1.289-3.48-1.263-4.62-.928-.503.149-.94.468-1.234.901a2.255 2.255 0 0 0-.38 1.477l.492 5.34 5.846.516s3.546-4.777-.104-7.306Zm-2.572 4.308a1.462 1.462 0 0 1-1.346-.896 1.447 1.447 0 0 1 .316-1.582 1.46 1.46 0 0 1 2.489 1.027 1.447 1.447 0 0 1-.9 1.34 1.46 1.46 0 0 1-.559.11Z" fill="#100F1B"/><path d="M63.365 33.582v-2.685a1.634 1.634 0 0 1 1.056-1.527c.206-.08.426-.116.646-.108l18.588.634a1.59 1.59 0 0 1 1.542 1.497l.156 2.58-21.988-.391Z" fill="#100F1B"/><path d="M55.79 34.261a1.74 1.74 0 0 1 .541-1.179c.326-.309.759-.481 1.209-.481h32.507c.566 0 1.114.199 1.547.562.434.363.724.866.82 1.422l.028.158a2.043 2.043 0 0 1-.454 1.673 2.063 2.063 0 0 1-1.578.732H57.06a1.345 1.345 0 0 1-1.257-.87 1.329 1.329 0 0 1-.083-.53l.07-1.487Z" fill="url(#d)"/><path d="M42.257 74.27s-2.924 6.72-4.724 5.824c-1.8-.896-3.15-8.288-3.15-8.288s5.625-1.344 7.874 2.464Z" fill="url(#e)"/><path d="M32.075 115.97s-.245 1.377-.365 2.742a.936.936 0 0 0 .536.928c.115.054.24.085.367.09 1.825.076 5.728.223 7.128.161a.314.314 0 0 0 .29-.277.304.304 0 0 0-.02-.142.685.685 0 0 0-.352-.369l-6.446-2.95-1.138-.183Z" fill="#2C2C2C"/><path d="m31.875 115.16.197 1.648s1.129.523 1.902-.066l-.468-1.837-1.631.255Z" fill="url(#f)"/><path d="M32.022 84.17c-.086.43-.455 21.481 1.805 30.914a.318.318 0 0 1-.189.373 5.63 5.63 0 0 1-1.84.372.552.552 0 0 1-.55-.396c-.646-2.188-3.741-13.154-4.145-23.629-.451-11.707 0-.398 0-.398l.264-7.236h4.655Z" fill="#5B5B5B"/><path d="M24.659 116.688s-.39.696-.766 2.545a.57.57 0 0 0 .507.688c.602.059 1.53.135 2.273.129a.573.573 0 0 0 .568-.637c-.082-.675-.339-1.782-1.13-2.645l-1.452-.08Z" fill="#2C2C2C"/><path d="m24.317 114.569.46 2.492s.453.336 1.35.093l-.218-2.682-1.592.097Z" fill="url(#g)"/><path d="M23.078 84.816c-1.849 11.104.4 27.45 1.16 30.649a.503.503 0 0 0 .405.379c.337.056.895.101 1.444-.057a.458.458 0 0 0 .33-.421c.102-2.587-.081-18.465 1.643-24.738.088-.318.283-.596.553-.787l3.343-2.367.255-3.825-9.133 1.167Z" fill="#5B5B5B"/><path d="M35.058 64.19c-6.749-.672-11.854 1.03-11.854 1.03-1.652 9.591-.289 20.655-.289 20.655 4.288 1.12 9.125-.684 9.125-.684.713-4.01 4.039-15.293 4.039-15.293 2.707-.335.68-5.538-1.02-5.707Z" fill="#F74E3D"/><path d="m25.329 70.56-2.125-5.34s-5.174 3.5-6.024 7.938c.977.071 2.756.324 4.495 1.2.385-2.096 3.654-3.798 3.654-3.798Z" fill="#F64E3D"/><path d="M30.3 75.585s-6.117 3.297-8.077.505c-.406-.58-.682-1.371-.582-1.92-1.741-.875-3.425-1.051-4.403-1.123-.256 1.338.27 2.871 1.06 4.31 3.433 6.253 12.77-.345 12.77-.345l-.768-1.427Z" fill="url(#h)"/><path d="m29.602 79.72 3.17-11.024a.321.321 0 0 1 .273-.231c.574-.067 2.239-.254 4.16-.416 2.315-.195 5.003-.353 6.61-.219a.325.325 0 0 1 .298.313.322.322 0 0 1-.033.152c-.914 1.84-4.669 9.324-6.553 11.776a.324.324 0 0 1-.261.13l-7.356-.069a.324.324 0 0 1-.308-.412Z" fill="#100F1B"/><path d="m37.535 67.094 2.298-.382a.167.167 0 0 1 .153.056.164.164 0 0 1 .03.16l-.227.688a.165.165 0 0 1-.134.112l-2.212.294a.165.165 0 0 1-.183-.2l.141-.6a.164.164 0 0 1 .134-.128Z" fill="#3B3B43"/><path d="m35.813 69.03.19-.98a.227.227 0 0 1 .2-.184l4.643-.47a.23.23 0 0 1 .245.172.227.227 0 0 1 0 .108l-.295 1.224a.227.227 0 0 1-.21.172l-4.54.227a.227.227 0 0 1-.233-.268Z" fill="#3B3B43"/><path d="M30.369 77.056s-.442-1.807-.264-2.45c.178-.64.523-1.465 1.674-1.282 1.15.183 2.507.666 2.507.666s-.069.835-.943.566l.542.418s-.077.668-.816.31l.504.555s-.317.55-.86.197c-.544-.353-.803 1.238-2.345 1.02Z" fill="url(#i)"/><path d="M42.156 74.367s1.34-1.299 1.53-1.937c.19-.639.339-1.52-.735-1.972-1.074-.454-2.48-.763-2.48-.763s-.389.745.497.978l-.682.067s-.291.609.525.696l-.723.203s-.024.633.624.622c.649-.011.022 1.475 1.444 2.106Z" fill="url(#j)"/><path d="m29.92 59.71-1.763 5.075a.182.182 0 0 0 .083.22c.481.265 2.212 1.03 4.298-.287a.862.862 0 0 0 .398-.615l.57-4.39-3.587-.002Z" fill="url(#k)"/><path d="M33.754 55.012s1.935 3.627 1.686 5.092c-.25 1.465-2.647 1.36-4.741.172l-1.464-3.916 4.519-1.348Z" fill="url(#l)"/><path d="M30.793 58.35a.149.149 0 0 0 .066-.218c-.155-.236-.446-.717-.539-1.139 0 0-.346-.222.886-.516 1.23-.295 3.073-.75 3.458-1.796.377-1.02-.614-3.582-2.194-1.54a.151.151 0 0 1-.238 0c-.26-.336-.94-1.033-1.885-.61-.885.395-.985 1.041-.973 1.366a.148.148 0 0 1-.11.15.15.15 0 0 1-.066.002c-.448-.086-1.521-.158-2.022.939-.413.904-.145 1.414.1 1.664a.148.148 0 0 1 0 .208.15.15 0 0 1-.065.04c-.294.09-.673.338-.635 1.023.052.947 1.117.865 1.42.822a.152.152 0 0 1 .134.047c.259.286 1.43 1.502 2.698 1.648a.152.152 0 0 0 .159-.198l-.549-1.588a.15.15 0 0 1 .082-.186l.273-.118Z" fill="#100F1B"/><path d="M31.014 58.576s-1.379-.942-1.48-.15c-.1.794 1.242 1.15 1.906.853l-.427-.703Z" fill="url(#m)"/><path d="m113.879 87.21.034.068-.034-.068Z" fill="#fff"/><path d="M101.759 68.78h14.349a.868.868 0 0 1 .866.86v3.185h-15.995v-3.273a.781.781 0 0 1 .78-.773Z" fill="url(#n)"/><path d="M120.006 119.911H98.083a2.78 2.78 0 0 1-1.924-.773 2.757 2.757 0 0 1-.85-1.885l-1.503-39.018a2.752 2.752 0 0 1 .773-2.023 2.778 2.778 0 0 1 2-.848h24.839a2.79 2.79 0 0 1 1.997.846 2.755 2.755 0 0 1 .776 2.018l-1.41 39.018a2.76 2.76 0 0 1-.847 1.89 2.78 2.78 0 0 1-1.928.775Z" fill="url(#o)"/><path d="M125.231 77.171h-32.68l1.083-4.707c.092-.4.318-.756.641-1.011a1.829 1.829 0 0 1 1.136-.393h27.442c.399 0 .784.141 1.087.399.302.257.502.614.563 1.005l.728 4.707Z" fill="url(#p)"/><path d="M126.308 74.89h-35.05a.35.35 0 0 0-.35.35v4.25c0 .194.157.35.35.35h35.05a.35.35 0 0 0 .349-.35v-4.25a.35.35 0 0 0-.349-.35Z" fill="url(#q)"/><path d="m113.365 96.968 3.634 6.658 2.718-4.83c.148-.263.228-.56.233-.861.004-.303-.068-.601-.208-.869l-1.674-3.182a.364.364 0 0 0-.329-.197.371.371 0 0 0-.326.204l-1.159 2.324-2.421-.02a.526.526 0 0 0-.468.773Z" fill="#fff"/><path d="m119.181 99.747-.559.381a3.214 3.214 0 0 1-1.839.56l-5.055-.043.01-1.152a.141.141 0 0 0-.196-.13.143.143 0 0 0-.069.06l-2.357 4.097 2.309 4.104a.14.14 0 0 0 .067.06.136.136 0 0 0 .089.009.14.14 0 0 0 .109-.13l.071-1.364 2.351.02a2.558 2.558 0 0 0 2.26-1.325l2.809-5.147ZM107.564 94.704l3.977-6.462-5.56.071a1.83 1.83 0 0 0-1.517.844l-1.931 3.034a.367.367 0 0 0 .333.56l2.601-.162 1.193 2.099a.521.521 0 0 0 .447.264.527.527 0 0 0 .457-.248ZM108.37 100.723l-7.608-.197 2.841 4.759a1.818 1.818 0 0 0 1.493.887l3.604.148a.364.364 0 0 0 .336-.186.365.365 0 0 0-.014-.382l-1.441-2.162 1.228-2.078a.511.511 0 0 0 .007-.519.52.52 0 0 0-.446-.27Z" fill="#fff"/><path d="m103.044 104.349-.052-.673c-.051-.651.1-1.302.433-1.865l2.564-4.337.997.584a.143.143 0 0 0 .172-.021.14.14 0 0 0 .022-.171l-2.386-4.082-4.724-.061a.14.14 0 0 0-.079.258l1.15.743-1.192 2.017a2.53 2.53 0 0 0 .022 2.612l3.073 4.996ZM107.073 88.299l.611.291a3.207 3.207 0 0 1 1.406 1.307l2.49 4.38-1.007.569a.148.148 0 0 0-.061.068.142.142 0 0 0 .132.195l4.743-.016 2.415-4.043a.134.134 0 0 0 .019-.088.139.139 0 0 0-.116-.123.143.143 0 0 0-.089.013l-1.223.62-1.158-2.037a2.557 2.557 0 0 0-2.282-1.286l-5.88.15Z" fill="#fff"/></g><defs><linearGradient id="b" x1="136.816" y1="121.033" x2="47.595" y2="42.625" gradientUnits="userSpaceOnUse"><stop stop-color="#EFF5E0"/><stop offset="1" stop-color="#EFF5E0"/></linearGradient><linearGradient id="c" x1="41.732" y1="136.213" x2="108.523" y2="11.343" gradientUnits="userSpaceOnUse"><stop stop-color="#FE7062"/><stop offset="1" stop-color="#FF928E"/></linearGradient><linearGradient id="d" x1="74.094" y1="9.914" x2="74.094" y2="50.169" gradientUnits="userSpaceOnUse"><stop stop-color="#E1473D"/><stop offset="1" stop-color="#E9605A"/></linearGradient><linearGradient id="e" x1="34.384" y1="75.876" x2="42.257" y2="75.876" gradientUnits="userSpaceOnUse"><stop stop-color="#FEBBBA"/><stop offset="1" stop-color="#FF928E"/></linearGradient><linearGradient id="f" x1="31.875" y1="115.964" x2="33.972" y2="115.964" gradientUnits="userSpaceOnUse"><stop stop-color="#FEBBBA"/><stop offset="1" stop-color="#FF928E"/></linearGradient><linearGradient id="g" x1="24.317" y1="115.857" x2="26.128" y2="115.857" gradientUnits="userSpaceOnUse"><stop stop-color="#FEBBBA"/><stop offset="1" stop-color="#FF928E"/></linearGradient><linearGradient id="h" x1="17.173" y1="76.548" x2="31.069" y2="76.548" gradientUnits="userSpaceOnUse"><stop stop-color="#FEBBBA"/><stop offset="1" stop-color="#FF928E"/></linearGradient><linearGradient id="i" x1="30.062" y1="75.188" x2="34.286" y2="75.188" gradientUnits="userSpaceOnUse"><stop stop-color="#FEBBBA"/><stop offset="1" stop-color="#FF928E"/></linearGradient><linearGradient id="j" x1="43.529" y1="73.078" x2="39.947" y2="70.835" gradientUnits="userSpaceOnUse"><stop stop-color="#FEBBBA"/><stop offset="1" stop-color="#FF928E"/></linearGradient><linearGradient id="k" x1="28.208" y1="68.165" x2="32.69" y2="59.455" gradientUnits="userSpaceOnUse"><stop stop-color="#FEBBBA"/><stop offset="1" stop-color="#FF928E"/></linearGradient><linearGradient id="l" x1="34.18" y1="59.888" x2="28.266" y2="56.268" gradientUnits="userSpaceOnUse"><stop stop-color="#FEBBBA"/><stop offset="1" stop-color="#FF928E"/></linearGradient><linearGradient id="m" x1="32.624" y1="61.231" x2="27.303" y2="57.974" gradientUnits="userSpaceOnUse"><stop stop-color="#FEBBBA"/><stop offset="1" stop-color="#FF928E"/></linearGradient><linearGradient id="n" x1="105.757" y1="78.615" x2="126.559" y2="29.585" gradientUnits="userSpaceOnUse"><stop stop-color="#7BA64E"/><stop offset="1" stop-color="#7BA64E"/></linearGradient><linearGradient id="o" x1="128.248" y1="65.298" x2="81.539" y2="141.672" gradientUnits="userSpaceOnUse"><stop stop-color="#4B870B"/><stop offset="1" stop-color="#4B870B"/></linearGradient><linearGradient id="p" x1="107.894" y1="95.378" x2="110.423" y2="48.551" gradientUnits="userSpaceOnUse"><stop stop-color="#4B870B"/><stop offset="1" stop-color="#4B870B"/></linearGradient><linearGradient id="q" x1="173.356" y1="6.902" x2="158.314" y2="23.267" gradientUnits="userSpaceOnUse"><stop stop-color="#7BA64E"/><stop offset="1" stop-color="#7BA64E"/></linearGradient><clipPath id="a"><path fill="#fff" d="M0 0h135v124H0z"/></clipPath></defs></svg>