<svg width="24" height="24" fill="none" xmlns="http://www.w3.org/2000/svg"><path d="M6.053 15.295a21.287 21.287 0 0 0 7.084 5.528c1.036.49 2.421 1.07 3.965 1.169.095.004.187.008.283.008 1.035 0 1.867-.356 2.545-1.09.005-.004.013-.012.017-.02.241-.29.516-.552.803-.83.195-.186.395-.38.587-.58.886-.92.886-2.088-.009-2.98l-2.5-2.49c-.424-.44-.932-.671-1.464-.671-.533 0-1.044.232-1.481.667l-1.49 1.483a7.927 7.927 0 0 0-.411-.215 5.165 5.165 0 0 1-.458-.249c-1.356-.858-2.587-1.976-3.765-3.415-.594-.75-.994-1.38-1.273-2.022.391-.352.758-.721 1.111-1.082.125-.128.254-.257.383-.385.45-.448.69-.966.69-1.492s-.237-1.044-.69-1.492L8.74 3.902c-.145-.145-.283-.286-.424-.43a22.777 22.777 0 0 0-.845-.834C7.043 2.22 6.54 2 6.007 2c-.528 0-1.036.22-1.48.642L2.97 4.192a3.18 3.18 0 0 0-.952 2.04c-.08.99.104 2.042.578 3.315.728 1.968 1.826 3.796 3.457 5.748Zm-3.02-8.977c.05-.55.262-1.01.661-1.409l1.548-1.541c.241-.232.507-.353.765-.353.254 0 .512.12.749.36.279.258.54.527.824.813.141.145.287.29.432.44l1.24 1.234c.258.257.39.518.39.775s-.132.518-.39.775c-.13.129-.258.261-.387.39-.387.39-.749.758-1.148 1.11l-.02.021c-.346.344-.292.672-.209.92.004.013.008.021.013.033.32.767.765 1.497 1.46 2.367 1.248 1.533 2.562 2.723 4.01 3.638.179.117.37.208.549.299.166.083.32.161.458.248l.045.025c.138.07.27.104.404.104.333 0 .549-.211.62-.282l1.555-1.55c.242-.24.504-.369.762-.369.316 0 .574.195.736.37l2.508 2.494c.5.497.495 1.036-.012 1.562-.175.187-.358.365-.553.552-.291.281-.595.572-.87.899-.478.514-1.048.754-1.784.754-.071 0-.146-.004-.217-.008-1.364-.087-2.633-.618-3.586-1.07a20.223 20.223 0 0 1-6.743-5.263c-1.551-1.86-2.596-3.593-3.286-5.45-.429-1.139-.59-2.055-.524-2.888Z" fill="#EF5C28"/></svg>